<?xml version="1.0" encoding="UTF-8"?>
<svg version="1.1" xmlns="http://www.w3.org/2000/svg" width="834" height="333">
<path d="M0 0 C0.98079686 -0.00467997 1.96159372 -0.00935994 2.9721117 -0.01418173 C6.26173702 -0.02615685 9.55094769 -0.01666446 12.84057617 -0.00723267 C15.19770552 -0.01129724 17.55483296 -0.01663847 19.91195679 -0.02316284 C26.31679823 -0.03685576 32.72149494 -0.03152955 39.12633896 -0.02202559 C43.12570208 -0.01669522 47.12505528 -0.01769693 51.12442017 -0.02049637 C52.12036862 -0.02118592 52.12036862 -0.02118592 53.13643724 -0.0218894 C54.48528092 -0.02284857 55.83412459 -0.02382121 57.18296826 -0.02480717 C69.83036963 -0.03336131 82.47770577 -0.02352658 95.12509644 -0.00740607 C105.97657808 0.00599715 116.82796345 0.00366906 127.67944336 -0.01016235 C140.28165999 -0.02621776 152.88381945 -0.03253733 165.48604488 -0.02332556 C166.82991981 -0.02236992 168.17379474 -0.02142681 169.51766968 -0.02049637 C170.17887764 -0.02003354 170.84008561 -0.01957072 171.52133018 -0.01909386 C176.18030773 -0.01650385 180.83922908 -0.02102171 185.49819946 -0.02793503 C191.76907592 -0.03658993 198.03977024 -0.0306096 204.31062698 -0.01325226 C206.61448489 -0.00927955 208.91835807 -0.01043481 211.22220993 -0.01704025 C214.36237807 -0.02521463 217.5019593 -0.01498345 220.64208984 0 C222.01586902 -0.01003825 222.01586902 -0.01003825 223.41740131 -0.02027929 C228.13586454 0.02351507 231.62327929 0.1067209 235.32104492 3.38095093 C238.09220471 7.83833992 237.60279333 12.94203327 237.58174133 18.02194214 C237.58556688 18.99865545 237.58939243 19.97536876 237.5933339 20.98167944 C237.6036601 24.25740266 237.59967245 27.53295049 237.59570312 30.8086853 C237.60004976 33.15596174 237.60523274 35.50323675 237.6111908 37.85050964 C237.62459609 44.228461 237.62515784 50.60635317 237.6226275 56.98431587 C237.62142388 62.97800482 237.6276327 68.97168543 237.63306095 74.96537107 C237.64393561 87.55982043 237.64177417 100.15424301 237.63567611 112.74869388 C237.63050529 124.27161533 237.64176685 135.79445228 237.66077433 147.317357 C237.68014297 159.1499073 237.68841055 170.98241759 237.68465108 182.81498384 C237.68273777 189.45778106 237.6855033 196.10051533 237.69936562 202.74330139 C237.7119092 208.98790318 237.71003271 215.23233536 237.69695473 221.47693443 C237.69458196 223.77112065 237.69734854 226.06531867 237.70557785 228.35949135 C237.7159875 231.48651292 237.707991 234.61295924 237.69526672 237.73995972 C237.70264101 238.65192155 237.71001529 239.56388339 237.71761304 240.50348043 C237.67686977 245.2491727 237.54533176 248.62353297 234.32104492 252.38095093 C229.87594824 256.19444674 225.24541036 255.8027416 219.68005371 255.76190186 C218.7033404 255.76658183 217.72662709 255.7712618 216.72031641 255.77608359 C213.44451004 255.78805835 210.16912009 255.77856646 206.89331055 255.76913452 C204.54603328 255.77319911 202.19875793 255.77854035 199.85148621 255.7850647 C193.47350321 255.79875743 187.09566556 255.79343149 180.71767998 255.78392744 C174.72399031 255.77710969 168.73031406 255.78230947 162.73662478 255.78670903 C150.14215842 255.79526311 137.54775758 255.78542852 124.95330197 255.76930793 C114.14730197 255.75590471 103.34139865 255.7582328 92.53540039 255.77206421 C79.9859214 255.78811972 67.43649983 255.79443913 54.887012 255.78522742 C48.24422054 255.78048383 41.60148299 255.77993825 34.95869446 255.78983688 C28.71408255 255.79849191 22.46965353 255.79251124 16.22506142 255.77515411 C13.93087887 255.77118147 11.63668098 255.77233655 9.3425045 255.77894211 C6.21547269 255.78711674 3.08903021 255.77688501 -0.03796387 255.76190186 C-0.9499257 255.76859402 -1.86188754 255.77528619 -2.80148458 255.78218114 C-8.83394706 255.72595857 -12.29889641 254.7610096 -16.67895508 250.38095093 C-18.10304606 245.68321562 -17.82410369 240.76708653 -17.81939697 235.90527344 C-17.82236809 234.94630547 -17.82533922 233.9873375 -17.82840037 232.9993099 C-17.83707718 229.78357854 -17.83859475 226.56788447 -17.84008789 223.35214233 C-17.8447167 221.04752015 -17.84974145 218.74289873 -17.85513306 216.4382782 C-17.86825109 210.17590759 -17.87470061 203.91354769 -17.87914371 197.65116549 C-17.8820748 193.73956311 -17.88617963 189.82796366 -17.89064789 185.91636276 C-17.9027539 175.08170746 -17.91313744 164.2470554 -17.91652298 153.41239357 C-17.91674255 152.71944146 -17.91696211 152.02648936 -17.91718833 151.31253871 C-17.91740661 150.61795464 -17.91762489 149.92337058 -17.91784978 149.20773852 C-17.91829324 147.80030672 -17.9187398 146.39287492 -17.91918945 144.98544312 C-17.91941088 144.28731232 -17.91963231 143.58918153 -17.91986045 142.86989526 C-17.92380931 131.55525779 -17.94126782 120.24068468 -17.96454898 108.92607208 C-17.98827004 97.30369877 -18.0004672 85.68136094 -18.0018909 74.05896318 C-18.00293975 67.53569664 -18.00886508 61.01252095 -18.02671051 54.48927689 C-18.04316672 48.35466185 -18.04535853 42.22020623 -18.0365715 36.08557701 C-18.03579988 33.83415361 -18.04016031 31.58272171 -18.05002975 29.33131981 C-18.06271407 26.25755454 -18.05689133 23.18435691 -18.04644775 20.1105957 C-18.05450416 19.22002334 -18.06256056 18.32945098 -18.0708611 17.41189158 C-18.0278178 11.99410929 -17.42556862 8.10727906 -14.67895508 3.38095093 C-10.40951431 -0.54228187 -5.48449134 -0.04007535 0 0 Z M41.07104492 73.19345093 C28.90100929 89.20931902 21.92814678 107.40220139 22.09399414 127.62582397 C22.09370209 128.58328018 22.09341003 129.54073639 22.09310913 130.52720642 C22.09448734 133.64912415 22.10997651 136.77079435 22.12573242 139.89266968 C22.12946793 142.07413096 22.13231236 144.25559393 22.13430786 146.4370575 C22.14190197 152.14653245 22.16151374 157.85590379 22.18371582 163.56533813 C22.2042657 169.4042521 22.21332904 175.243183 22.22338867 181.0821228 C22.24476398 192.51511075 22.27884834 203.94802218 22.32104492 215.38095093 C27.27104492 215.38095093 32.22104492 215.38095093 37.32104492 215.38095093 C37.32318245 213.62140327 37.32318245 213.62140327 37.32536316 211.8263092 C37.34213931 200.69192011 37.38523371 189.55789153 37.45313549 178.42369366 C37.48721256 172.70146787 37.51248522 166.97950362 37.51660156 161.25717163 C37.5209262 155.71961466 37.54972932 150.18264572 37.5944767 144.64527321 C37.60731994 142.54815935 37.61180703 140.45097464 37.60719872 138.35382652 C37.56447322 112.97173445 42.97239324 93.40522214 60.75854492 74.63095093 C75.01222786 60.92301711 93.88432692 55.42357531 113.32104492 55.38095093 C133.14663777 56.34702855 150.58229032 65.12375276 164.32104492 79.38095093 C178.62028604 96.16450465 183.03563417 116.85975724 181.32104492 138.38095093 C179.81241245 150.72938712 174.70975042 163.2036115 166.56713867 172.68563843 C164.10765012 175.05227292 164.10765012 175.05227292 164.32104492 177.38095093 C163.66104492 177.38095093 163.00104492 177.38095093 162.32104492 177.38095093 C161.12701611 178.54086463 159.93781357 179.70618185 158.77416992 180.89657593 C158.29463867 181.38641968 157.81510742 181.87626343 157.32104492 182.38095093 C156.86213867 182.85016968 156.40323242 183.31938843 155.93041992 183.80282593 C141.91649602 196.96742111 122.77174393 200.04320074 104.32885742 199.71688843 C92.90171391 199.17305714 83.45493592 195.34109248 73.32104492 190.38095093 C71.95012695 189.75446655 71.95012695 189.75446655 70.55151367 189.11532593 C68.07751547 187.70670713 66.82105822 186.81562296 65.32104492 184.38095093 C64.38061208 179.33343005 64.21677545 174.50318871 64.32104492 169.38095093 C67.85948491 171.39754858 70.9079886 173.62175928 74.00854492 176.25595093 C87.0860156 186.76807706 101.84137225 189.5831155 118.32104492 188.38095093 C134.33034261 186.08021353 147.67248662 177.26566637 158.17651367 165.27157593 C162.04705316 160.05445531 164.70552401 154.31477815 167.32104492 148.38095093 C167.69358398 147.54177124 168.06612305 146.70259155 168.44995117 145.83798218 C172.89549845 133.29874794 171.33955326 117.3906517 166.32104492 105.38095093 C165.93174805 104.38966187 165.54245117 103.3983728 165.14135742 102.37704468 C158.3893641 87.05521367 146.28806805 77.21297207 131.01245117 71.04501343 C115.32994818 65.5238326 99.33493861 66.05107407 84.14379883 72.99569702 C69.18010656 80.28895481 58.03137878 92.01036199 52.44995117 107.85360718 C49.95430842 115.77040693 49.17158599 123.34303123 49.19165039 131.60507202 C49.18989807 132.50181641 49.18814575 133.39856079 49.18634033 134.32247925 C49.18196272 137.26646904 49.18484385 140.2103981 49.18823242 143.15438843 C49.18755856 145.204651 49.18658785 147.25491349 49.18533325 149.30517578 C49.18386213 153.59037033 49.18599334 157.87554397 49.19067383 162.16073608 C49.19639242 167.6656986 49.19307499 173.17061258 49.18710136 178.67557335 C49.18349835 182.9030189 49.18463276 187.13045282 49.18722916 191.35789871 C49.18789803 193.38898347 49.18707138 195.42006926 49.1847496 197.4511528 C49.18222502 200.27852966 49.18605991 203.10582619 49.19165039 205.93319702 C49.18962616 206.77887238 49.18760193 207.62454773 49.18551636 208.49584961 C48.83692084 212.24305776 48.83692084 212.24305776 50.32104492 215.38095093 C52.67418047 215.45366834 55.02938161 215.46465961 57.38354492 215.44345093 C58.67389648 215.43442749 59.96424805 215.42540405 61.29370117 215.41610718 C62.29272461 215.40450562 63.29174805 215.39290405 64.32104492 215.38095093 C64.32104492 211.42095093 64.32104492 207.46095093 64.32104492 203.38095093 C65.4115918 203.91204468 66.50213867 204.44313843 67.62573242 204.99032593 C91.74211714 216.42311859 115.25837523 218.86873553 140.76245117 210.21298218 C162.51118172 201.63014982 180.89235709 184.94897757 190.63354492 163.63095093 C200.04509856 140.15435325 200.12718031 116.53930292 190.69604492 93.00595093 C188.53248143 88.4258266 185.8429469 84.13084047 183.19604492 79.81845093 C182.75180176 79.09029175 182.30755859 78.36213257 181.84985352 77.61190796 C180.73071185 75.8310499 179.53216812 74.10057708 178.32104492 72.38095093 C177.66104492 72.38095093 177.00104492 72.38095093 176.32104492 72.38095093 C176.04518555 71.78411499 175.76932617 71.18727905 175.48510742 70.57235718 C168.78805403 57.96481707 150.16571179 48.6261065 137.32104492 44.38095093 C101.63707662 33.45936539 65.12896822 44.56875941 41.07104492 73.19345093 Z " fill="#5E6EFE" transform="translate(33.678955078125,38.619049072265625)"/>
<path d="M0 0 C1.22391953 -0.01210762 1.22391953 -0.01210762 2.4725647 -0.02445984 C4.20938988 -0.03832821 5.94624264 -0.04903798 7.68310547 -0.05688477 C10.30621728 -0.07392419 12.92801047 -0.11776062 15.55078125 -0.16210938 C28.0307746 -0.2790597 38.06205824 0.9428385 47.97265625 9.2578125 C55.83072775 17.02397673 59.07230903 25.72126759 59.4140625 36.61328125 C59.12438837 47.76573525 56.12217135 55.06828258 48.328125 63.078125 C37.70955167 72.83239585 25.53499472 73.70781155 11.73022461 73.51953125 C9.38704756 73.48791676 7.04454273 73.47850311 4.70117188 73.47265625 C3.20832506 73.46350179 1.71548509 73.45313104 0.22265625 73.44140625 C-0.47622208 73.43715637 -1.1751004 73.43290649 -1.89515686 73.42852783 C-6.78871628 73.35564186 -6.78871628 73.35564186 -9.0234375 72.23828125 C-9.04656274 62.99830573 -9.06435351 53.75834011 -9.07524967 44.51834202 C-9.08047811 40.2282821 -9.08757503 35.93824192 -9.09887695 31.64819336 C-9.10970725 27.51148725 -9.11571464 23.37480017 -9.11831474 19.23808098 C-9.12016874 17.65635821 -9.12378886 16.07463654 -9.12916756 14.49292183 C-9.1363799 12.28505287 -9.13742836 10.07726352 -9.13696289 7.86938477 C-9.1391835 6.610298 -9.14140411 5.35121124 -9.14369202 4.05397034 C-8.90413405 -1.55513921 -4.54283291 0.04239561 0 0 Z M8.9765625 18.23828125 C8.9519124 23.34692021 8.93372643 28.45552484 8.92163086 33.56420898 C8.91659046 35.30347293 8.9097582 37.04273261 8.90112305 38.78198242 C8.88904458 41.27654062 8.88333142 43.77104298 8.87890625 46.265625 C8.87374496 47.04791977 8.86858368 47.83021454 8.86326599 48.63621521 C8.86307024 50.50395239 8.91456556 52.37157329 8.9765625 54.23828125 C11.28748325 56.549202 17.17388747 55.60798334 20.39135742 55.62768555 C28.10956761 55.48877239 32.02863044 53.26379046 37.3515625 47.80078125 C41.28480149 41.59836591 41.43144685 36.28977715 39.9765625 29.23828125 C38.73607998 26.18413969 38.73607998 26.18413969 36.9765625 24.23828125 C36.3165625 24.23828125 35.6565625 24.23828125 34.9765625 24.23828125 C34.9765625 23.57828125 34.9765625 22.91828125 34.9765625 22.23828125 C27.88031546 16.87282617 17.49804472 15.85832388 8.9765625 18.23828125 Z " fill="#5D6DFE" transform="translate(565.0234375,126.76171875)"/>
<path d="M0 0 C3.37530069 0.17557935 5.79887974 0.48367384 8.44897461 2.67724609 C11.76240911 6.66735277 14.10521032 11.22973263 16.45483398 15.83154297 C18.54932993 19.80389044 20.99969659 23.54224988 23.42163086 27.3203125 C24.26121788 28.66390055 25.09869007 30.00881413 25.93334961 31.35546875 C26.52760742 32.31324219 27.12186523 33.27101562 27.73413086 34.2578125 C27.71842041 32.8648999 27.71842041 32.8648999 27.70239258 31.44384766 C27.66833882 28.0035556 27.64324593 24.56344223 27.62426758 21.12304688 C27.61420043 19.6331093 27.60054568 18.14319153 27.58325195 16.65332031 C27.55903433 14.51362222 27.54765522 12.37418497 27.53881836 10.234375 C27.52310791 8.30198975 27.52310791 8.30198975 27.50708008 6.33056641 C27.73413086 3.2578125 27.73413086 3.2578125 29.73413086 1.2578125 C32.4404478 1.0857514 35.03127026 1.02542233 37.73413086 1.0703125 C38.47147461 1.07095703 39.20881836 1.07160156 39.96850586 1.07226562 C45.45311277 1.11730346 45.45311277 1.11730346 47.73413086 2.2578125 C47.73413086 25.6878125 47.73413086 49.1178125 47.73413086 73.2578125 C44.92205851 74.66384868 42.4940362 74.50338755 39.35913086 74.5703125 C37.6459668 74.62638672 37.6459668 74.62638672 35.89819336 74.68359375 C31.91718715 74.1478781 31.16126089 73.42724387 28.73413086 70.2578125 C26.75282491 67.35026486 24.89059117 64.37894982 23.04663086 61.3828125 C22.06432608 59.80160588 21.08123005 58.22089058 20.09741211 56.640625 C19.58259277 55.81208008 19.06777344 54.98353516 18.53735352 54.12988281 C14.98631332 48.47398831 11.35552552 42.86882315 7.73413086 37.2578125 C7.70907471 38.34312256 7.68401855 39.42843262 7.65820312 40.54663086 C7.56429331 44.5591285 7.46403319 48.57144632 7.36181641 52.58374023 C7.31840513 54.32295538 7.27673474 56.06221485 7.23681641 57.80151367 C7.17926318 60.29619738 7.11552666 62.7906566 7.05053711 65.28515625 C7.02546837 66.4585984 7.02546837 66.4585984 6.99989319 67.65574646 C6.84800257 73.14394079 6.84800257 73.14394079 5.73413086 74.2578125 C2.87145519 74.33106418 0.03341186 74.35019455 -2.82836914 74.3203125 C-3.63467773 74.31580078 -4.44098633 74.31128906 -5.27172852 74.30664062 C-7.2698067 74.29481768 -9.26784697 74.27688164 -11.26586914 74.2578125 C-12.36385028 70.70344281 -12.39910884 67.39254003 -12.41113281 63.68505859 C-12.41449142 63.03419785 -12.41785004 62.3833371 -12.42131042 61.7127533 C-12.43078302 59.56889929 -12.43276125 57.42512361 -12.43383789 55.28125 C-12.43705153 53.78960132 -12.44041568 52.29795295 -12.44392395 50.80630493 C-12.44990488 47.68433907 -12.45176476 44.56240087 -12.45117188 41.44042969 C-12.45106996 37.43420458 -12.46475646 33.42815555 -12.48194408 29.42197227 C-12.49304074 26.34397562 -12.49509186 23.26602197 -12.49456215 20.18800735 C-12.49574448 18.71037816 -12.50018034 17.23274793 -12.50789452 15.7551384 C-12.51765353 13.69389053 -12.51483361 11.63303099 -12.50878906 9.57177734 C-12.51021408 8.39803558 -12.5116391 7.22429382 -12.5131073 6.01498413 C-11.92675658 -0.52393189 -5.24545746 0.15840324 0 0 Z " fill="#5E6DFE" transform="translate(480.265869140625,125.7421875)"/>
<path d="M0 0 C7.9056559 5.79119597 14.81720234 13.58744534 16.41796875 23.4921875 C17.39987623 35.23825572 16.18344543 45.49490831 9.41796875 55.4921875 C8.75796875 55.4921875 8.09796875 55.4921875 7.41796875 55.4921875 C7.17433594 56.08902344 6.93070313 56.68585938 6.6796875 57.30078125 C5.1832877 59.89979142 3.73937778 60.93534002 1.23046875 62.5546875 C0.12638672 63.28365234 0.12638672 63.28365234 -1 64.02734375 C-7.56603837 67.75240334 -12.39330498 69.02392965 -19.89453125 68.9296875 C-20.73540283 68.92211426 -21.57627441 68.91454102 -22.44262695 68.90673828 C-33.32649014 68.61807518 -41.75471313 64.62975636 -49.26953125 56.71484375 C-56.2511505 48.17981422 -58.30334311 39.03133253 -57.9609375 28.140625 C-56.87073568 17.64321781 -52.18694036 9.40843883 -44.29296875 2.484375 C-31.09859351 -7.52659542 -14.36831855 -8.39057634 0 0 Z M-35.95703125 20.7421875 C-38.91388415 25.74609241 -40.17841169 30.91839616 -39.01953125 36.6796875 C-37.24784425 42.28445834 -33.85280862 46.01096485 -28.76953125 48.8671875 C-23.84705922 51.06521441 -19.68196123 51.42801542 -14.51171875 49.8671875 C-8.92217487 47.48684942 -5.64808973 43.65886737 -2.58203125 38.4921875 C-0.88797785 33.41002731 -1.00002377 29.20819338 -3.26953125 24.3671875 C-5.7924692 19.79934195 -8.5455515 16.46414374 -13.33203125 14.1796875 C-23.02815122 12.1285852 -28.76825554 13.9317684 -35.95703125 20.7421875 Z " fill="#5E6EFE" transform="translate(704.58203125,131.5078125)"/>
<path d="M0 0 C4.92870928 2.93003269 8.88680493 6.55186583 12.83203125 10.68359375 C13.41726562 11.26109375 14.0025 11.83859375 14.60546875 12.43359375 C23.64238974 21.97511439 25.33224477 33.72564071 25.10546875 46.31640625 C24.65215967 56.6796801 20.28256657 64.77203974 13.83203125 72.68359375 C13.08179688 73.63878906 13.08179688 73.63878906 12.31640625 74.61328125 C6.39876296 81.3378759 -4.25086704 87.04818557 -13.26757812 87.87646484 C-27.75226963 88.39647661 -38.5975663 87.18734098 -50.1328125 77.578125 C-59.80157222 68.57745616 -65.03154792 58.78785726 -66.52734375 45.48828125 C-66.84909938 33.16504052 -62.84760197 20.75372098 -55.09375 11.1015625 C-41.07878704 -3.64716815 -18.78926998 -8.51426483 0 0 Z M-43.16796875 17.68359375 C-44.49828125 18.79734375 -44.49828125 18.79734375 -45.85546875 19.93359375 C-52.72807833 28.10642677 -54.2284378 35.80234892 -53.71484375 46.2578125 C-52.8936914 55.0625997 -48.45494178 62.42535161 -41.94921875 68.2890625 C-34.27936149 74.29375338 -25.84260504 76.68164275 -16.16796875 75.68359375 C-8.43620685 74.32280366 -2.05169445 70.87879835 3.83203125 65.68359375 C3.83203125 65.02359375 3.83203125 64.36359375 3.83203125 63.68359375 C4.49203125 63.68359375 5.15203125 63.68359375 5.83203125 63.68359375 C11.56677975 54.18907392 14.9055043 46.06992288 12.83203125 34.68359375 C10.29459949 26.60436186 6.10299922 19.27064737 -1.16796875 14.68359375 C-1.73386719 14.29945313 -2.29976562 13.9153125 -2.8828125 13.51953125 C-16.17373693 5.14112537 -31.68323097 7.64088583 -43.16796875 17.68359375 Z " fill="#5D6DFE" transform="translate(164.16796875,124.31640625)"/>
<path d="M0 0 C1.19496094 -0.00386719 1.19496094 -0.00386719 2.4140625 -0.0078125 C3.24679687 -0.00007813 4.07953125 0.00765625 4.9375 0.015625 C5.77023437 0.00789063 6.60296875 0.00015625 7.4609375 -0.0078125 C8.25757813 -0.00523438 9.05421875 -0.00265625 9.875 0 C10.60589844 0.00225586 11.33679688 0.00451172 12.08984375 0.00683594 C13.9375 0.265625 13.9375 0.265625 15.9375 2.265625 C16.7929367 4.59334391 17.57359441 6.90147335 18.3125 9.265625 C19.71407054 13.61362653 21.12815039 17.91602636 22.875 22.140625 C24.65797424 26.46255457 26.21632986 30.85058953 27.75 35.265625 C29.90587699 41.46897376 32.20966088 47.59629778 34.625 53.703125 C37.03875138 59.8126473 39.25946351 65.90506764 40.9375 72.265625 C38.76042824 74.44269676 34.06719122 73.58969803 31.0625 73.640625 C29.81919922 73.69669922 29.81919922 73.69669922 28.55078125 73.75390625 C26.2507359 73.78734794 24.18993324 73.73406666 21.9375 73.265625 C18.36185895 69.54638391 18.23084237 65.4389945 16.9375 60.265625 C9.0175 60.595625 1.0975 60.925625 -7.0625 61.265625 C-8.3825 64.895625 -9.7025 68.525625 -11.0625 72.265625 C-12.0625 73.265625 -12.0625 73.265625 -13.82836914 73.37915039 C-14.57723389 73.37391357 -15.32609863 73.36867676 -16.09765625 73.36328125 C-16.90654297 73.36005859 -17.71542969 73.35683594 -18.54882812 73.35351562 C-19.39896484 73.34513672 -20.24910156 73.33675781 -21.125 73.328125 C-21.97900391 73.32361328 -22.83300781 73.31910156 -23.71289062 73.31445312 C-25.82945663 73.30262873 -27.94598685 73.28469269 -30.0625 73.265625 C-31.51273805 68.91491085 -29.65243758 65.7971126 -28.0625 61.703125 C-27.74361816 60.85975586 -27.42473633 60.01638672 -27.09619141 59.14746094 C-24.63527474 52.66475164 -22.08920794 46.21472058 -19.55102539 39.76196289 C-17.26725543 33.90952115 -15.27026387 27.99987693 -13.3203125 22.02734375 C-11.90941726 17.807803 -10.41745485 13.62605392 -8.875 9.453125 C-8.62484131 8.76460449 -8.37468262 8.07608398 -8.11694336 7.36669922 C-5.37016149 0.01657457 -5.37016149 0.01657457 0 0 Z M4.9375 28.265625 C2.56636517 33.22846534 0.50575653 37.72512387 -0.0625 43.265625 C3.2375 43.265625 6.5375 43.265625 9.9375 43.265625 C8.85016548 38.13961939 7.71112508 33.20643772 5.9375 28.265625 C5.6075 28.265625 5.2775 28.265625 4.9375 28.265625 Z " fill="#5C6CFE" transform="translate(406.0625,126.734375)"/>
<path d="M0 0 C4.97034642 3.76758631 10.38016637 8.44571835 11.4375 14.84765625 C9.3838858 16.05336532 7.32194845 17.23672266 5.25 18.41015625 C4.67185547 18.75240234 4.09371094 19.09464844 3.49804688 19.44726562 C0.78642223 20.96393704 -1.12633885 21.86343632 -4.26171875 21.75 C-6.7622247 20.76932619 -8.24657381 19.69109299 -10.1875 17.84765625 C-14.2413539 14.03226434 -17.71503601 13.48087234 -23.15234375 13.578125 C-28.05374771 14.12625608 -31.84059062 15.9163832 -35.13671875 19.61328125 C-38.12355849 23.96088752 -40.1408774 28.4976653 -39.5625 33.84765625 C-38.70230751 36.10167917 -37.69427587 38.10476986 -36.47265625 40.18359375 C-35.5625 41.84765625 -35.5625 41.84765625 -35.5625 43.84765625 C-34.9025 43.84765625 -34.2425 43.84765625 -33.5625 43.84765625 C-33.5625 44.50765625 -33.5625 45.16765625 -33.5625 45.84765625 C-24.73133876 49.26112554 -24.73133876 49.26112554 -15.52734375 48.12109375 C-11.93387566 46.4687701 -9.61190854 44.89818771 -6.8125 42.03515625 C-6.07 41.31328125 -5.3275 40.59140625 -4.5625 39.84765625 C-0.99790721 40.21425551 2.00772709 42.04956718 5.125 43.72265625 C6.09824219 44.23570312 7.07148437 44.74875 8.07421875 45.27734375 C10.4375 46.84765625 10.4375 46.84765625 11.4375 49.84765625 C10.125 52.53515625 10.125 52.53515625 8.4375 54.84765625 C7.7775 54.84765625 7.1175 54.84765625 6.4375 54.84765625 C6.19386719 55.44449219 5.95023438 56.04132813 5.69921875 56.65625 C4.20281895 59.25526017 2.75890903 60.29080877 0.25 61.91015625 C-0.85408203 62.63912109 -0.85408203 62.63912109 -1.98046875 63.3828125 C-8.56873601 67.12048303 -13.40999952 68.37927802 -20.9375 68.28515625 C-22.20267456 68.27379639 -22.20267456 68.27379639 -23.4934082 68.26220703 C-29.60781229 68.09978854 -34.42708604 67.36193318 -39.5625 63.84765625 C-40.2534375 63.40035156 -40.944375 62.95304687 -41.65625 62.4921875 C-49.84488445 56.79375345 -56.11699768 49.35241671 -58.3125 39.47265625 C-59.18855727 26.76982588 -57.9728314 16.98327406 -49.87890625 6.7109375 C-36.69414351 -7.67991581 -16.34512455 -10.39447764 0 0 Z " fill="#5D6DFE" transform="translate(800.5625,132.15234375)"/>
<path d="M0 0 C1.52554721 -0.01642971 3.05102171 -0.04354477 4.57617188 -0.08203125 C13.61055414 -0.30870387 21.8402839 -0.39490146 29.37475586 5.35009766 C35.86096394 12.25325863 37.91389287 18.55456546 37.75366211 27.98681641 C37.02918393 34.41749382 34.31746555 39.9231671 29.49975586 44.28759766 C23.29350305 48.38372451 18.24616049 49.80355222 10.93725586 50.03759766 C10.20571289 50.07175781 9.47416992 50.10591797 8.72045898 50.14111328 C6.93906024 50.22261518 5.15693837 50.28805289 3.37475586 50.35009766 C3.38261108 51.3419104 3.38261108 51.3419104 3.390625 52.35375977 C3.41133242 55.33169617 3.42439598 58.30961747 3.43725586 61.28759766 C3.44563477 62.32851562 3.45401367 63.36943359 3.46264648 64.44189453 C3.46748047 65.92592773 3.46748047 65.92592773 3.47241211 67.43994141 C3.48026733 68.81460571 3.48026733 68.81460571 3.48828125 70.21704102 C3.37475586 72.35009766 3.37475586 72.35009766 2.37475586 73.35009766 C-0.30255794 73.44990979 -2.94828589 73.48889641 -5.62524414 73.47509766 C-6.7505957 73.48089844 -6.7505957 73.48089844 -7.89868164 73.48681641 C-13.49863361 73.47670819 -13.49863361 73.47670819 -14.62524414 72.35009766 C-14.72484566 70.14684792 -14.75324171 67.94036275 -14.75463867 65.73486328 C-14.75639099 65.04382004 -14.75814331 64.35277679 -14.75994873 63.64079285 C-14.76436668 61.34595258 -14.76142947 59.05118877 -14.75805664 56.75634766 C-14.7587297 55.16833481 -14.75969974 53.58032206 -14.76095581 51.99230957 C-14.76243271 48.65990216 -14.7602785 45.3275215 -14.75561523 41.99511719 C-14.74991794 37.71411255 -14.75319699 33.43317061 -14.7591877 29.15216827 C-14.76279354 25.87176029 -14.76165462 22.59136728 -14.75905991 19.31095886 C-14.7583907 17.73203016 -14.75921884 16.15310011 -14.76153946 14.57417297 C-14.76406637 12.37118913 -14.76022489 10.16830817 -14.75463867 7.96533203 C-14.75384308 6.70926147 -14.75304749 5.45319092 -14.75222778 4.15905762 C-14.45464982 -2.42355851 -5.18207198 0.0407907 0 0 Z M3.37475586 18.35009766 C3.37475586 22.97009766 3.37475586 27.59009766 3.37475586 32.35009766 C11.47313183 33.08428477 11.47313183 33.08428477 18.68725586 30.22509766 C20.63840199 27.45653258 20.63840199 27.45653258 20.37475586 24.22509766 C19.33402016 21.23298251 18.90459514 20.16625596 16.37475586 18.35009766 C12.01245384 17.94265973 7.76510328 18.2196913 3.37475586 18.35009766 Z " fill="#5D6DFE" transform="translate(327.625244140625,126.64990234375)"/>
<path d="M0 0 C5.20731203 2.70509716 7.98899922 6.86543516 9.8046875 12.3125 C10.37900885 18.63003485 10.00257775 23.68862405 6.8046875 29.3125 C3.18123755 33.49340379 0.33769165 36.03105509 -5.21875 36.6484375 C-16.48657464 36.77976413 -16.48657464 36.77976413 -21.1953125 32.3125 C-25.35963096 27.91683051 -26.96188823 23.880167 -27.5078125 17.875 C-27.08349226 13.03774923 -25.35901377 9.63990253 -23.1953125 5.3125 C-22.5353125 5.3125 -21.8753125 5.3125 -21.1953125 5.3125 C-21.1953125 4.6525 -21.1953125 3.9925 -21.1953125 3.3125 C-20.5353125 3.3125 -19.8753125 3.3125 -19.1953125 3.3125 C-19.1953125 2.6525 -19.1953125 1.9925 -19.1953125 1.3125 C-13.19084506 -1.43679828 -6.36547372 -1.99345796 0 0 Z " fill="#5E6EFE" transform="translate(152.1953125,148.6875)"/>
<path d="M0 0 C1.26134346 -0.00874829 1.26134346 -0.00874829 2.5481686 -0.01767331 C3.46693423 -0.01389399 4.38569985 -0.01011467 5.33230686 -0.00622082 C6.3122493 -0.01004636 7.29219174 -0.01387191 8.3018294 -0.01781338 C11.59447779 -0.02815483 14.88695217 -0.02414903 18.17961216 -0.02018261 C20.53659318 -0.02452843 22.89357278 -0.02971115 25.25055027 -0.03567028 C31.6595515 -0.04908514 38.06849386 -0.0496362 44.4775064 -0.04710698 C48.47904152 -0.04582482 52.48057095 -0.04844271 56.4821043 -0.05209446 C57.14620542 -0.05268965 57.81030655 -0.05328484 58.49453195 -0.05389806 C59.84361716 -0.0551098 61.19270237 -0.05632394 62.54178757 -0.05754044 C75.1958441 -0.06841891 87.84987398 -0.06625201 100.50393201 -0.06015559 C112.08188235 -0.05498593 123.65974857 -0.0662426 135.23768228 -0.08525381 C147.12444147 -0.10462258 159.01116085 -0.11288992 170.89793593 -0.10913056 C177.57204677 -0.10721708 184.24609651 -0.10998419 190.92019558 -0.1238451 C197.19515254 -0.13638892 203.46994071 -0.13451197 209.74489498 -0.12143421 C212.05036824 -0.11906139 214.35585326 -0.1218282 216.66131306 -0.13005733 C219.80371389 -0.14046668 222.94554225 -0.13247067 226.0879221 -0.11974621 C227.004457 -0.12712049 227.92099191 -0.13449478 228.8653006 -0.14209253 C233.68123389 -0.10094719 236.82161415 0.17444929 240.7736063 3.25447559 C240.1136063 4.24447559 239.4536063 5.23447559 238.7736063 6.25447559 C238.7736063 5.59447559 238.7736063 4.93447559 238.7736063 4.25447559 C233.93167549 3.0043654 229.17855062 3.10927376 224.21527195 3.1140337 C223.24743131 3.11106258 222.27959067 3.10809145 221.28242153 3.1050303 C218.03671721 3.09635298 214.79104982 3.09483588 211.54533482 3.09334278 C209.21938594 3.08871403 206.89343781 3.0836893 204.56749058 3.07829762 C198.24733771 3.06517965 191.92719546 3.05873017 185.60703111 3.05428696 C181.65992448 3.0513561 177.71282076 3.04725133 173.7657156 3.04278278 C162.83412305 3.03067722 151.90253303 3.02029332 140.97093391 3.01690769 C140.27179502 3.01668813 139.57265613 3.01646856 138.85233122 3.01624234 C137.80114709 3.01591492 137.80114709 3.01591492 136.72872692 3.01558089 C135.3087095 3.01513743 133.88869208 3.01469087 132.46867466 3.01424122 C131.76430033 3.01401979 131.059926 3.01379836 130.33420699 3.01357022 C118.91542982 3.00962037 107.49671638 2.99215864 96.07796384 2.9688817 C84.35050534 2.94516857 72.62307883 2.93270592 60.89559597 2.93153977 C54.31255791 2.93049048 47.72960986 2.92455579 41.14659405 2.90672016 C34.95699056 2.8902761 28.7675451 2.88806619 22.57792759 2.89685917 C20.30512094 2.89763143 18.03230592 2.89326208 15.75952053 2.88340092 C12.65913223 2.87073664 9.55930832 2.87652835 6.45892429 2.88698292 C5.55765719 2.87892651 4.6563901 2.87087011 3.72781187 2.86256957 C-1.35943974 2.90274585 -4.77364191 3.50801696 -9.2263937 6.25447559 C-8.9763937 4.37947559 -8.9763937 4.37947559 -8.2263937 2.25447559 C-5.42850879 0.50155312 -3.27281944 0.00391373 0 0 Z " fill="#6E7CF9" transform="translate(28.226393699645996,38.745524406433105)"/>
<path d="M0 0 C-0.33 0.99 -0.66 1.98 -1 3 C-3.72876308 3.33695862 -6.45793163 3.66968429 -9.1875 4 C-10.34088867 4.14308594 -10.34088867 4.14308594 -11.51757812 4.2890625 C-15.36928811 4.75192894 -19.11170851 5.12467468 -23 5 C-22.01 4.67 -21.02 4.34 -20 4 C-20 3.34 -20 2.68 -20 2 C-17.60468244 1.66254646 -15.20885732 1.3299171 -12.8125 1 C-12.13896484 0.90460938 -11.46542969 0.80921875 -10.77148438 0.7109375 C-7.15335423 0.21675387 -3.65203599 -0.11346131 0 0 Z " fill="#6D79FE" transform="translate(146,93)"/>
<path d="M0 0 C0.84755859 0.00322266 1.69511719 0.00644531 2.56835938 0.00976562 C3.8899707 0.02233398 3.8899707 0.02233398 5.23828125 0.03515625 C6.57729492 0.04192383 6.57729492 0.04192383 7.94335938 0.04882812 C10.14590112 0.06060642 12.34830724 0.07705461 14.55078125 0.09765625 C14.55078125 0.75765625 14.55078125 1.41765625 14.55078125 2.09765625 C3.66078125 2.59265625 3.66078125 2.59265625 -7.44921875 3.09765625 C-7.44921875 2.43765625 -7.44921875 1.77765625 -7.44921875 1.09765625 C-4.6251011 0.1562837 -2.92003843 -0.01959757 0 0 Z " fill="#6B78FE" transform="translate(138.44921875,120.90234375)"/>
<path d="M0 0 C5.92781843 0.1261238 11.62689225 2.50195318 17.1875 4.375 C16.8575 5.035 16.5275 5.695 16.1875 6.375 C15.42566406 6.17003906 14.66382813 5.96507812 13.87890625 5.75390625 C7.62543676 4.12222695 1.62816194 2.91172183 -4.8125 2.375 C-2.8125 0.375 -2.8125 0.375 0 0 Z " fill="#6977FE" transform="translate(684.8125,125.625)"/>
<path d="M0 0 C6.33393082 -0.34548714 11.10261508 0.70657253 17 3 C17 3.33 17 3.66 17 4 C10.97099313 3.48758893 4.97995357 2.930215 -1 2 C-0.67 1.34 -0.34 0.68 0 0 Z " fill="#6F7DFE" transform="translate(147,94)"/>
<path d="M0 0 C0 3.29657856 -0.74333269 5.16364428 -2 8.1875 C-2.37125 9.08855469 -2.7425 9.98960937 -3.125 10.91796875 C-3.558125 11.94857422 -3.558125 11.94857422 -4 13 C-5.109375 11.26171875 -5.109375 11.26171875 -6 9 C-5.390625 6.89453125 -5.390625 6.89453125 -4.25 4.8125 C-3.88390625 4.11769531 -3.5178125 3.42289063 -3.140625 2.70703125 C-2 1 -2 1 0 0 Z " fill="#6B7BFE" transform="translate(749,143)"/>
<path d="M0 0 C1.21236328 0.01353516 1.21236328 0.01353516 2.44921875 0.02734375 C3.37154297 0.04474609 3.37154297 0.04474609 4.3125 0.0625 C4.3125 0.7225 4.3125 1.3825 4.3125 2.0625 C-1.6275 2.5575 -1.6275 2.5575 -7.6875 3.0625 C-7.6875 2.4025 -7.6875 1.7425 -7.6875 1.0625 C-4.80538698 0.10179566 -2.98899956 -0.04331883 0 0 Z " fill="#6879FF" transform="translate(778.6875,125.9375)"/>
<path d="M0 0 C4.1666604 0.47348414 6.92884715 1.04696841 10 4 C10 4.66 10 5.32 10 6 C6.40992874 4.66654496 3.20429093 3.1056769 0 1 C0 0.67 0 0.34 0 0 Z " fill="#6A78FE" transform="translate(173,101)"/>
<path d="M0 0 C3.78786597 0.5260925 6.17152224 1.38103911 9 4 C9 4.66 9 5.32 9 6 C5.06326356 4.68775452 2.77280706 3.08089673 0 0 Z " fill="#6C79FE" transform="translate(104,214)"/>
<path d="M0 0 C0 0.66 0 1.32 0 2 C-2.64 2.99 -5.28 3.98 -8 5 C-8.33 4.34 -8.66 3.68 -9 3 C-3.375 0 -3.375 0 0 0 Z " fill="#6977FD" transform="translate(769,128)"/>
<path d="M0 0 C6.75 -0.125 6.75 -0.125 9 1 C9 1.66 9 2.32 9 3 C4.545 2.01 4.545 2.01 0 1 C0 0.67 0 0.34 0 0 Z " fill="#6D7BFE" transform="translate(153,123)"/>
</svg>
